<svg xmlns="http://www.w3.org/2000/svg" width="900" height="700" viewBox="0 0 900 700">
  <defs>
    <style>
      .bg { fill: #f3efe7; }
      .panel { fill: #fcfaf6; stroke: #d7cec2; stroke-width: 2; }
      .tile { fill: #fffdf9; stroke: #ddd4c8; stroke-width: 1.5; }
      .title { font: 700 36px "Segoe UI", Arial, sans-serif; fill: #2d2418; }
      .subtitle { font: 500 20px "Segoe UI", Arial, sans-serif; fill: #6c604e; }
      .label { font: 700 24px "Segoe UI", Arial, sans-serif; fill: #2f271a; }
      .meta { font: 500 18px "Segoe UI", Arial, sans-serif; fill: #726654; }
      .green { fill: #58a35b; }
      .white { fill: #ffffff; }
      .steel { fill: #768996; }
    </style>
  </defs>

  <rect class="bg" x="0" y="0" width="900" height="700"/>
  <rect class="panel" x="24" y="24" width="852" height="652" rx="30"/>

  <text class="title" x="60" y="86">Service Icon Fix</text>
  <text class="subtitle" x="60" y="120">Green plus restored over the traced aCar-style wrench.</text>

  <g transform="translate(118 170)">
    <rect class="tile" width="620" height="440" rx="28"/>

    <g transform="translate(90 380) scale(0.44 -0.44)">
      <path fill-rule="evenodd" class="steel" d="M193 1150 c-125 -50 -189 -205 -134 -325 24 -54 100 -119 156 -135 97 -27 210 13 263 92 l27 41 7 -39 c18 -101 16 -104 -84 -200 -51 -48 -144 -130 -205 -182 -90 -76 -116 -104 -129 -139 -16 -42 -16 -46 2 -91 13 -30 31 -53 52 -65 36 -21 99 -25 131 -8 10 6 61 59 112 118 51 60 136 155 188 212 l95 103 51 -6 c184 -24 219 -19 285 45 64 63 103 155 108 258 l5 85 -108 -102 c-122 -116 -134 -119 -208 -73 -49 32 -91 87 -103 134 -6 27 2 38 101 137 l108 109 -37 6 c-103 20 -282 -55 -336 -139 -14 -23 -20 -26 -20 -13 0 27 -28 78 -64 115 -69 75 -171 98 -263 62z m91 -866 c21 -20 20 -73 -1 -96 -20 -22 -70 -23 -95 -1 -22 20 -23 70 -1 95 20 22 76 24 97 2z"/>
    </g>

    <circle cx="176" cy="144" r="94" class="green"/>
    <rect x="161" y="90" width="30" height="108" rx="8" class="white"/>
    <rect x="122" y="129" width="108" height="30" rx="8" class="white"/>

    <text class="label" x="34" y="380">Service</text>
    <text class="meta" x="34" y="410">The gray circle is gone because the plus badge is restored as its own layer.</text>
  </g>
</svg>
