<svg xmlns="http://www.w3.org/2000/svg" width="256" height="256" viewBox="0 0 256 256">
  <rect x="8" y="8" width="240" height="240" rx="18" fill="#f7f8fa" stroke="#e3e6ea" stroke-width="2"/>

  <g transform="rotate(-27 128 128)">
    <!-- bottom ring -->
    <circle cx="72" cy="176" r="36" fill="#5b87a3"/>
    <circle cx="72" cy="176" r="16" fill="#f7f8fa"/>

    <!-- little foot -->
    <polygon points="36,178 49,168 54,187 42,194" fill="#5b87a3"/>
    <polygon points="67,209 80,204 87,222 74,226" fill="#5b87a3"/>

    <!-- rod -->
    <path d="M95 159
             C108 132 120 111 138 94
             L151 82
             C157 76 166 75 173 79
             L182 85
             C189 89 191 98 187 105
             L177 121
             C166 138 158 152 153 169
             L144 202
             C141 212 132 217 123 214
             L107 209
             C99 206 95 198 97 189
             L104 165
             C105 162 102 160 95 159 Z"
          fill="#5b87a3"/>

    <!-- wrist joint -->
    <rect x="157" y="76" width="28" height="20" rx="10" fill="#5b87a3"/>

    <!-- piston head -->
    <path d="M172 45
             L227 45
             C233 45 238 50 238 56
             L238 104
             C238 110 233 115 227 115
             L172 115
             C166 115 161 110 161 104
             L161 56
             C161 50 166 45 172 45 Z"
          fill="#5b87a3"/>

    <!-- fins -->
    <rect x="166" y="38" width="72" height="10" rx="5" fill="#5b87a3"/>
    <rect x="163" y="55" width="75" height="9" rx="4.5" fill="#5b87a3"/>
    <rect x="160" y="72" width="78" height="9" rx="4.5" fill="#5b87a3"/>

    <!-- white groove cuts -->
    <rect x="176" y="41" width="47" height="4" rx="2" fill="#f7f8fa"/>
    <rect x="173" y="58" width="50" height="3.5" rx="1.75" fill="#f7f8fa"/>
    <rect x="170" y="75" width="53" height="3.5" rx="1.75" fill="#f7f8fa"/>

    <!-- pin hole -->
    <circle cx="198" cy="81" r="12" fill="#f7f8fa"/>
    <rect x="194" y="76" width="18" height="4" rx="2" fill="#5b87a3"/>
  </g>
</svg>
