<svg xmlns="http://www.w3.org/2000/svg" width="1440" height="1120" viewBox="0 0 1440 1120">
  <defs>
    <style>
      .bg { fill: #f3efe7; }
      .panel { fill: #fcfaf6; stroke: #d5cdc1; stroke-width: 2; }
      .tile { fill: #fffdf9; stroke: #ded5c9; stroke-width: 1.5; }
      .title { font: 700 42px "Segoe UI", Arial, sans-serif; fill: #2c2418; }
      .subtitle { font: 500 20px "Segoe UI", Arial, sans-serif; fill: #6b5e4d; }
      .label { font: 700 24px "Segoe UI", Arial, sans-serif; fill: #2f271b; }
      .note { font: 500 17px "Segoe UI", Arial, sans-serif; fill: #726654; }
      .white-line { stroke: #fff; stroke-width: 4; stroke-linecap: round; stroke-linejoin: round; fill: none; }
      .dark-line { stroke: #44515d; stroke-width: 4; stroke-linecap: round; stroke-linejoin: round; fill: none; }
      .thin-dark { stroke: #3d4650; stroke-width: 2; stroke-linecap: round; stroke-linejoin: round; fill: none; }
    </style>
  </defs>

  <rect class="bg" x="0" y="0" width="1440" height="1120"/>
  <rect class="panel" x="24" y="24" width="1392" height="1072" rx="30"/>

  <text class="title" x="60" y="88">Current Icon Family Review</text>
  <text class="subtitle" x="60" y="124">All together before dashboard wiring, using the corrected service plus-badge and the correct settings gear.</text>

  <!-- Tile 1 Fuel-Up -->
  <g transform="translate(60 170)">
    <rect class="tile" width="300" height="200" rx="24"/>
    <rect x="72" y="42" width="78" height="98" rx="10" fill="#f3c158"/>
    <rect x="86" y="56" width="50" height="28" rx="4" fill="#dbe9f0"/>
    <path d="M120 65 L127 72 L120 79" stroke="#e15a4f" stroke-width="4" fill="none" stroke-linecap="round"/>
    <path d="M147 58 C160 62 166 74 166 90 L166 121" fill="none" stroke="#68a6da" stroke-width="8" stroke-linecap="round"/>
    <path d="M164 120 C160 131 153 138 142 142" fill="none" stroke="#36454f" stroke-width="6" stroke-linecap="round"/>
    <rect x="66" y="138" width="108" height="10" rx="5" fill="#677784"/>
    <circle cx="68" cy="110" r="28" fill="#56a85f"/>
    <path class="white-line" d="M68 97 v26"/>
    <path class="white-line" d="M55 110 h26"/>
    <text class="label" x="32" y="176">Fuel-Up</text>
  </g>

  <!-- Tile 2 Service -->
  <g transform="translate(400 170)">
    <rect class="tile" width="300" height="200" rx="24"/>
    <g transform="translate(28 168) scale(0.14 -0.14)">
      <path fill-rule="evenodd" d="M193 1150 c-125 -50 -189 -205 -134 -325 24 -54 100 -119 156 -135 97 -27 210 13 263 92 l27 41 7 -39 c18 -101 16 -104 -84 -200 -51 -48 -144 -130 -205 -182 -90 -76 -116 -104 -129 -139 -16 -42 -16 -46 2 -91 13 -30 31 -53 52 -65 36 -21 99 -25 131 -8 10 6 61 59 112 118 51 60 136 155 188 212 l95 103 51 -6 c184 -24 219 -19 285 45 64 63 103 155 108 258 l5 85 -108 -102 c-122 -116 -134 -119 -208 -73 -49 32 -91 87 -103 134 -6 27 2 38 101 137 l108 109 -37 6 c-103 20 -282 -55 -336 -139 -14 -23 -20 -26 -20 -13 0 27 -28 78 -64 115 -69 75 -171 98 -263 62z m91 -866 c21 -20 20 -73 -1 -96 -20 -22 -70 -23 -95 -1 -22 20 -23 70 -1 95 20 22 76 24 97 2z" fill="#768996"/>
    </g>
    <circle cx="80" cy="56" r="34" fill="#56a85f"/>
    <path class="white-line" d="M80 43 v26"/>
    <path class="white-line" d="M67 56 h26"/>
    <text class="label" x="36" y="176">Service</text>
  </g>

  <!-- Tile 3 Expense -->
  <g transform="translate(740 170)">
    <rect class="tile" width="300" height="200" rx="24"/>
    <rect x="90" y="88" width="92" height="52" rx="4" fill="#3c8c4a"/>
    <rect x="102" y="74" width="92" height="52" rx="4" fill="#5caf62" transform="rotate(-14 148 100)"/>
    <rect x="96" y="94" width="80" height="40" rx="4" fill="#8bd08e"/>
    <circle cx="136" cy="114" r="15" fill="#4a9f52"/>
    <rect x="110" y="102" width="12" height="8" rx="3" fill="#4a9f52"/>
    <rect x="150" y="118" width="12" height="8" rx="3" fill="#4a9f52"/>
    <circle cx="76" cy="56" r="28" fill="#56a85f"/>
    <path class="white-line" d="M76 43 v26"/>
    <path class="white-line" d="M63 56 h26"/>
    <text class="label" x="34" y="176">Expense</text>
  </g>

  <!-- Tile 4 Trip -->
  <g transform="translate(1080 170)">
    <rect class="tile" width="300" height="200" rx="24"/>
    <path d="M92 132 L118 48 L182 48 L208 132 Z" fill="#687c8b"/>
    <path d="M150 54 V126" stroke="#f5cf58" stroke-width="6" stroke-dasharray="10 10"/>
    <circle cx="76" cy="56" r="28" fill="#56a85f"/>
    <path class="white-line" d="M76 43 v26"/>
    <path class="white-line" d="M63 56 h26"/>
    <text class="label" x="40" y="176">Trip</text>
  </g>

  <!-- Tile 5 Add Vehicle -->
  <g transform="translate(60 420)">
    <rect class="tile" width="300" height="200" rx="24"/>
    <path d="M74 120 H232 V112 C232 104 228 98 220 95 L209 89 L197 77 C188 68 178 64 164 64 H129 C115 64 106 68 98 76 L87 92 L77 97 C70 100 66 106 66 114 V120 Z" fill="#cfd6e6"/>
    <path d="M92 94 C101 76 114 70 129 70 H163 C176 70 184 73 192 82 L200 92 Z" fill="#4f5f77"/>
    <path d="M100 92 C106 80 116 75 127 75 H145 V92 Z" fill="#9fb2cf"/>
    <path d="M149 75 H163 C174 75 181 78 188 87 L192 92 H149 Z" fill="#c6d8f3"/>
    <path d="M74 104 H92" stroke="#ea6464" stroke-width="7" stroke-linecap="round"/>
    <circle cx="104" cy="120" r="18" fill="#4a5563"/>
    <circle cx="188" cy="120" r="18" fill="#4a5563"/>
    <circle cx="104" cy="120" r="8" fill="#cfd6e6"/>
    <circle cx="188" cy="120" r="8" fill="#cfd6e6"/>
    <circle cx="214" cy="56" r="28" fill="#56a85f"/>
    <path class="white-line" d="M214 43 v26"/>
    <path class="white-line" d="M201 56 h26"/>
    <text class="label" x="22" y="176">Add Vehicle</text>
  </g>

  <!-- Tile 6 Browse -->
  <g transform="translate(400 420)">
    <rect class="tile" width="300" height="200" rx="24"/>
    <circle cx="146" cy="92" r="52" fill="#4d93e4"/>
    <path d="M104 80 C116 66 128 60 145 56 C140 71 138 84 137 100 C126 105 116 116 111 131 C101 122 96 105 98 92 C100 88 102 84 104 80 Z" fill="#cedb65"/>
    <path d="M151 54 C175 58 189 72 196 93 C187 100 180 109 176 121 C165 126 154 133 148 145 C146 128 143 115 142 101 C148 84 149 69 151 54 Z" fill="#cedb65"/>
    <path d="M147 43 C145 68 142 82 140 99" stroke="#4d93e4" stroke-width="10" stroke-linecap="round"/>
    <text class="label" x="78" y="176">Browse</text>
  </g>

  <!-- Tile 7 Stats -->
  <g transform="translate(740 420)">
    <rect class="tile" width="300" height="200" rx="24"/>
    <rect x="108" y="42" width="84" height="110" rx="10" fill="#444448"/>
    <rect x="118" y="52" width="64" height="24" rx="4" fill="#a9ce70"/>
    <rect x="124" y="88" width="12" height="12" rx="2" fill="#e6e7ea"/>
    <rect x="142" y="88" width="12" height="12" rx="2" fill="#e6e7ea"/>
    <rect x="160" y="88" width="12" height="12" rx="2" fill="#e6e7ea"/>
    <rect x="124" y="106" width="12" height="12" rx="2" fill="#e6e7ea"/>
    <rect x="142" y="106" width="12" height="12" rx="2" fill="#e6e7ea"/>
    <rect x="160" y="106" width="12" height="12" rx="2" fill="#e6e7ea"/>
    <rect x="124" y="124" width="12" height="12" rx="2" fill="#e6e7ea"/>
    <rect x="142" y="124" width="12" height="12" rx="2" fill="#e6e7ea"/>
    <rect x="178" y="88" width="12" height="12" rx="2" fill="#ef6767"/>
    <rect x="178" y="106" width="12" height="12" rx="2" fill="#7f8e9d"/>
    <text class="label" x="102" y="176">Stats</text>
  </g>

  <!-- Tile 8 Charts -->
  <g transform="translate(1080 420)">
    <rect class="tile" width="300" height="200" rx="24"/>
    <rect x="90" y="106" width="18" height="38" fill="#52bfd2"/>
    <rect x="118" y="118" width="18" height="26" fill="#52bfd2"/>
    <rect x="146" y="94" width="18" height="50" fill="#52bfd2"/>
    <rect x="174" y="104" width="18" height="40" fill="#52bfd2"/>
    <rect x="202" y="84" width="18" height="60" fill="#52bfd2"/>
    <path d="M88 74 C106 60 118 95 137 82 C154 71 169 45 188 58 C204 69 217 52 232 46" fill="none" stroke="#4d59bc" stroke-width="8" stroke-linecap="round"/>
    <circle cx="88" cy="74" r="6" fill="#4d59bc"/>
    <circle cx="137" cy="82" r="6" fill="#4d59bc"/>
    <circle cx="188" cy="58" r="6" fill="#4d59bc"/>
    <circle cx="232" cy="46" r="6" fill="#4d59bc"/>
    <text class="label" x="98" y="176">Charts</text>
  </g>

  <!-- Tile 9 Reminders -->
  <g transform="translate(60 670)">
    <rect class="tile" width="300" height="200" rx="24"/>
    <circle cx="148" cy="98" r="46" fill="#fbfbfb" stroke="#c94444" stroke-width="10"/>
    <path d="M148 98 L148 70" stroke="#111" stroke-width="6" stroke-linecap="round"/>
    <path d="M148 98 L174 124" stroke="#111" stroke-width="6" stroke-linecap="round"/>
    <path d="M148 98 L125 118" stroke="#d84f4f" stroke-width="4" stroke-linecap="round"/>
    <circle cx="148" cy="98" r="6" fill="#111"/>
    <path d="M115 46 C122 34 136 34 142 48" fill="#46515f"/>
    <path d="M181 46 C174 34 160 34 154 48" fill="#46515f"/>
    <rect x="144" y="40" width="8" height="18" fill="#46515f"/>
    <path d="M118 142 L103 158" stroke="#46515f" stroke-width="8" stroke-linecap="round"/>
    <path d="M178 142 L193 158" stroke="#46515f" stroke-width="8" stroke-linecap="round"/>
    <text class="label" x="74" y="176">Reminders</text>
  </g>

  <!-- Tile 10 Parts -->
  <g transform="translate(400 670)">
    <rect class="tile" width="300" height="200" rx="24"/>
    <g transform="translate(50 168) scale(0.14 -0.14)">
      <path fill-rule="evenodd" d="M477 1083 c-4 -3 -7 -31 -8 -62 -1 -69 -8 -88 -39 -104 -14 -8 -35 -20 -47 -27 -19 -12 -29 -10 -89 18 -37 17 -71 29 -75 27 -15 -10 -120 -205 -115 -213 3 -5 30 -26 61 -47 l55 -38 0 -63 0 -62 -60 -38 c-33 -22 -61 -43 -64 -49 -3 -8 35 -77 111 -203 6 -10 23 -6 78 18 l69 32 52 -28 51 -28 7 -70 c4 -39 10 -74 15 -79 4 -4 61 -6 127 -5 l119 3 3 35 c8 111 9 114 65 144 l52 28 64 -31 c35 -16 68 -28 72 -26 10 7 119 194 119 205 0 5 -25 28 -55 51 l-55 41 0 63 0 62 60 42 c33 23 60 45 60 48 0 8 -121 213 -125 213 -1 0 -33 -14 -69 -31 l-67 -31 -53 28 -53 28 -7 69 c-3 38 -9 73 -12 78 -6 10 -237 12 -247 2z m191 -397 c81 -44 81 -178 0 -222 -33 -19 -105 -17 -139 3 -75 45 -76 169 -1 215 32 21 107 23 140 4z" fill="#768996"/>
    </g>
    <circle cx="154" cy="98" r="46" fill="#556774"/>
    <circle cx="154" cy="98" r="18" fill="#fcfaf6"/>
    <text class="label" x="110" y="176">Parts</text>
  </g>

  <!-- Tile 11 Predictions -->
  <g transform="translate(740 670)">
    <rect class="tile" width="300" height="200" rx="24"/>
    <ellipse cx="148" cy="92" rx="36" ry="42" fill="#90bce7"/>
    <path d="M124 68 C132 54 149 58 161 66" fill="none" stroke="#d7ecff" stroke-width="6" stroke-linecap="round"/>
    <rect x="116" y="132" width="64" height="12" rx="6" fill="#ef9248"/>
    <rect x="122" y="120" width="52" height="12" rx="6" fill="#ee8a39"/>
    <rect x="128" y="108" width="40" height="12" rx="6" fill="#ec7d2f"/>
    <text class="label" x="74" y="176">Predictions</text>
  </g>

  <g transform="translate(1080 670)">
    <rect class="tile" width="300" height="200" rx="24"/>
    <text class="label" x="34" y="54">Review Focus</text>
    <text class="note" x="34" y="90">- icon family cohesion as a set</text>
    <text class="note" x="34" y="118">- corrected service plus-badge</text>
    <text class="note" x="34" y="146">- correct settings gear for parts</text>
    <text class="note" x="34" y="174">- hold dashboard wiring until this set feels right</text>
  </g>
</svg>
